<svg version="1.1" id="Layer_1" xmlns="http://www.w3.org/2000/svg" xmlns:xlink="http://www.w3.org/1999/xlink" x="0px" y="0px"
	 width="100%" viewBox="0 0 1076 199" enable-background="new 0 0 1076 199" xml:space="preserve">
<path fill="#FEFEFE" opacity="1.000000" stroke="none" 
	d="
M801.000000,200.000000 
	C534.000000,200.000000 267.500000,200.000000 1.000000,200.000000 
	C1.000000,133.666672 1.000000,67.333336 1.000000,1.000000 
	C359.666656,1.000000 718.333313,1.000000 1077.000000,1.000000 
	C1077.000000,67.333336 1077.000000,133.666672 1077.000000,200.000000 
	C985.166687,200.000000 893.333313,200.000000 801.000000,200.000000 
M39.166355,144.499924 
	C39.166355,155.941818 39.166355,167.383698 39.166355,178.958862 
	C40.680779,179.050430 41.656307,179.160614 42.631870,179.160950 
	C70.287079,179.170212 97.946358,179.437271 125.595261,179.019577 
	C135.010818,178.877319 144.571960,177.791046 153.768814,175.776688 
	C179.325577,170.179092 196.694794,155.289856 202.773376,129.145416 
	C206.627274,112.569595 206.629272,95.816147 203.117905,79.120125 
	C198.164459,55.567204 184.321045,39.714638 161.231049,32.966309 
	C151.279388,30.057812 140.744186,27.992981 130.419052,27.733274 
	C100.456673,26.979643 70.466438,27.332794 40.487099,27.270821 
	C40.201710,27.270229 39.915783,27.530180 39.166355,27.893028 
	C39.166355,66.288956 39.166355,104.894432 39.166355,144.499924 
M445.500061,27.167454 
	C422.744598,27.167454 399.989105,27.167454 377.296936,27.167454 
	C377.296936,78.193169 377.296936,128.594467 377.296936,179.056519 
	C407.067139,179.056519 436.543335,179.280396 466.012177,178.914856 
	C474.429810,178.810425 482.965637,177.638824 491.206482,175.848282 
	C517.214783,170.197296 534.678284,155.088974 540.678894,128.500702 
	C544.235779,112.740517 544.246155,96.796432 541.243774,80.906029 
	C536.119446,53.784554 519.530212,37.667713 493.136353,31.016306 
	C477.800568,27.151596 462.162384,27.032570 445.500061,27.167454 
M867.779602,151.230408 
	C870.581726,145.239670 874.154724,139.480942 876.040588,133.214462 
	C881.572876,114.832016 881.481628,96.121689 877.281189,77.461861 
	C872.541138,56.404549 860.225525,41.255035 839.772156,34.386913 
	C828.570251,30.625355 816.467224,28.181780 804.682495,27.789448 
	C774.888977,26.797581 745.045715,27.301268 715.222290,27.222879 
	C714.928650,27.222109 714.634277,27.453184 714.089294,27.680866 
	C714.089294,77.980202 714.089294,128.370712 714.089294,179.167557 
	C723.224182,179.167557 732.181030,179.267975 741.134949,179.148392 
	C766.278687,178.812607 791.481140,179.316727 816.545227,177.701416 
	C836.649475,176.405731 854.781128,168.998291 867.779602,151.230408 
M706.184265,165.259460 
	C692.829590,120.370354 679.436218,75.492630 666.209290,30.565914 
	C665.350037,27.647203 664.038452,27.095020 661.340637,27.113531 
	C645.511353,27.222137 629.680969,27.166872 613.850952,27.166866 
	C602.036133,27.166861 590.221313,27.166864 578.280151,27.166864 
	C563.192444,77.875198 548.189331,128.299210 533.124146,178.932007 
	C554.587524,178.932007 575.531677,178.932007 596.608948,178.932007 
	C598.096375,172.618103 599.418396,166.463593 601.085938,160.404114 
	C601.404297,159.247299 603.073120,157.651688 604.140381,157.635086 
	C616.600220,157.441132 629.064270,157.510834 641.723267,157.510834 
	C643.514465,164.912628 645.219910,171.959991 646.878052,178.811829 
	C668.164368,178.811829 689.029846,178.811829 710.290100,178.811829 
	C708.926514,174.258362 707.692627,170.137894 706.184265,165.259460 
M963.623901,129.166412 
	C952.009033,128.577713 947.067932,123.488930 947.007629,111.977509 
	C946.969482,104.696846 947.000549,97.415833 947.000549,90.194695 
	C926.150452,90.194695 905.784302,90.194695 885.168579,90.194695 
	C885.168579,100.862030 884.914978,111.175652 885.217224,121.472954 
	C886.050720,149.868713 899.738892,168.885254 926.506104,177.290726 
	C952.590637,185.481827 979.056396,185.288666 1005.047424,176.760132 
	C1024.495239,170.378662 1038.653442,157.449081 1042.278198,136.850052 
	C1044.959106,121.614822 1044.434937,105.815598 1045.341919,90.210632 
	C1023.658508,90.210632 1003.288147,90.210632 982.831787,90.210632 
	C982.831787,97.250504 982.836853,103.911774 982.830688,110.573021 
	C982.818298,123.943382 977.843506,128.997726 963.623901,129.166412 
M301.186493,126.989609 
	C284.251923,134.425339 272.507507,127.049622 272.507233,108.978409 
	C272.507141,102.693329 272.507233,96.408249 272.507233,90.080521 
	C251.690567,90.080521 231.436340,90.080521 210.964630,90.080521 
	C210.964630,101.950897 210.470016,113.600624 211.068329,125.193939 
	C212.286224,148.792496 223.549255,166.282654 245.728821,174.891998 
	C275.407074,186.412048 305.662262,186.118057 335.388916,174.780396 
	C350.910828,168.860382 361.654083,157.475220 366.751434,141.390457 
	C372.100128,124.512489 369.330109,107.157745 370.025024,90.089157 
	C349.115723,90.089157 328.850922,90.089157 308.163940,90.089157 
	C308.163940,97.964188 308.196106,105.589729 308.153107,113.214844 
	C308.122528,118.629990 306.568634,123.376419 301.186493,126.989609 
M272.078827,30.725367 
	C264.664795,32.534935 257.230377,34.268055 249.857895,36.233429 
	C248.702881,36.541332 247.076157,37.801773 246.940628,38.795403 
	C245.404160,50.060719 244.115784,61.359871 242.741806,72.809753 
	C257.595490,72.809753 271.836090,72.809753 286.185425,72.809753 
	C286.185425,57.588516 286.185425,42.566719 286.185425,27.176573 
	C281.476715,28.329630 277.166229,29.385181 272.078827,30.725367 
M1003.735535,67.137093 
	C1005.505249,66.090599 1008.633972,65.252449 1008.831360,63.964924 
	C1010.536133,52.845207 1011.713013,41.644550 1013.064148,30.326126 
	C998.425171,30.326126 984.090271,30.326126 969.811829,30.326126 
	C969.811829,45.520676 969.811829,60.378540 969.811829,75.687767 
	C981.133118,72.837875 992.034058,70.093781 1003.735535,67.137093 
M920.997253,41.585522 
	C919.793091,51.927391 918.588928,62.269257 917.376953,72.678009 
	C932.094604,72.678009 946.476379,72.678009 960.846191,72.678009 
	C960.846191,57.396099 960.846191,42.438232 960.846191,27.154797 
	C948.404968,30.224773 936.156250,33.135937 924.005371,36.409943 
	C922.726624,36.754494 922.023804,39.236450 920.997253,41.585522 
M337.409210,38.954536 
	C337.714722,36.069241 338.020233,33.183945 338.335266,30.208950 
	C323.670013,30.208950 309.442352,30.208950 295.023346,30.208950 
	C295.023346,45.303299 295.023346,60.187450 295.023346,75.665405 
	C307.642883,72.499107 319.989532,69.477478 332.264404,66.188026 
	C333.335663,65.900948 334.485138,63.927296 334.662872,62.610779 
	C335.683807,55.047966 336.422424,47.447041 337.409210,38.954536 
z"/>
<path fill="#020202" opacity="1.000000" stroke="none" 
	d="
M39.166355,143.999908 
	C39.166355,104.894432 39.166355,66.288956 39.166355,27.893028 
	C39.915783,27.530180 40.201710,27.270229 40.487099,27.270821 
	C70.466438,27.332794 100.456673,26.979643 130.419052,27.733274 
	C140.744186,27.992981 151.279388,30.057812 161.231049,32.966309 
	C184.321045,39.714638 198.164459,55.567204 203.117905,79.120125 
	C206.629272,95.816147 206.627274,112.569595 202.773376,129.145416 
	C196.694794,155.289856 179.325577,170.179092 153.768814,175.776688 
	C144.571960,177.791046 135.010818,178.877319 125.595261,179.019577 
	C97.946358,179.437271 70.287079,179.170212 42.631870,179.160950 
	C41.656307,179.160614 40.680779,179.050430 39.166355,178.958862 
	C39.166355,167.383698 39.166355,155.941818 39.166355,143.999908 
M139.804947,81.655609 
	C127.420059,71.508865 112.651337,74.061615 98.298126,73.451569 
	C98.298126,92.920586 98.298126,111.957260 98.298126,131.600372 
	C106.894897,131.049469 115.226700,130.997604 123.409676,129.867798 
	C133.393021,128.489426 142.387955,124.366539 145.618484,113.943604 
	C149.082565,102.767105 149.008743,91.598740 139.804947,81.655609 
z"/>
<path fill="#010101" opacity="1.000000" stroke="none" 
	d="
M446.000061,27.167454 
	C462.162384,27.032570 477.800568,27.151596 493.136353,31.016306 
	C519.530212,37.667713 536.119446,53.784554 541.243774,80.906029 
	C544.246155,96.796432 544.235779,112.740517 540.678894,128.500702 
	C534.678284,155.088974 517.214783,170.197296 491.206482,175.848282 
	C482.965637,177.638824 474.429810,178.810425 466.012177,178.914856 
	C436.543335,179.280396 407.067139,179.056519 377.296936,179.056519 
	C377.296936,128.594467 377.296936,78.193169 377.296936,27.167454 
	C399.989105,27.167454 422.744598,27.167454 446.000061,27.167454 
M473.238586,125.921211 
	C484.910248,119.130455 486.206055,108.073921 484.809723,96.351402 
	C483.489441,85.267090 476.863678,77.883064 465.978394,75.815536 
	C456.288605,73.975090 446.307068,73.670692 436.137817,72.656807 
	C436.137817,92.868027 436.137817,111.898331 436.137817,131.163849 
	C448.684906,130.930191 461.076324,132.076370 473.238586,125.921211 
z"/>
<path fill="#010101" opacity="1.000000" stroke="none" 
	d="
M867.559937,151.516754 
	C854.781128,168.998291 836.649475,176.405731 816.545227,177.701416 
	C791.481140,179.316727 766.278687,178.812607 741.134949,179.148392 
	C732.181030,179.267975 723.224182,179.167557 714.089294,179.167557 
	C714.089294,128.370712 714.089294,77.980202 714.089294,27.680866 
	C714.634277,27.453184 714.928650,27.222109 715.222290,27.222879 
	C745.045715,27.301268 774.888977,26.797581 804.682495,27.789448 
	C816.467224,28.181780 828.570251,30.625355 839.772156,34.386913 
	C860.225525,41.255035 872.541138,56.404549 877.281189,77.461861 
	C881.481628,96.121689 881.572876,114.832016 876.040588,133.214462 
	C874.154724,139.480942 870.581726,145.239670 867.559937,151.516754 
M820.700378,112.854279 
	C820.998291,111.557014 821.341370,110.268257 821.587280,108.961220 
	C824.878601,91.469658 816.855469,78.014305 800.565002,75.177887 
	C791.649414,73.625542 782.461121,73.639748 773.156372,72.929253 
	C773.156372,92.896156 773.156372,111.931717 773.156372,132.044876 
	C783.289734,130.968033 793.106689,130.524933 802.669128,128.727844 
	C811.043762,127.153969 817.554688,122.240425 820.700378,112.854279 
z"/>
<path fill="#010101" opacity="1.000000" stroke="none" 
	d="
M706.321472,165.638458 
	C707.692627,170.137894 708.926514,174.258362 710.290100,178.811829 
	C689.029846,178.811829 668.164368,178.811829 646.878052,178.811829 
	C645.219910,171.959991 643.514465,164.912628 641.723267,157.510834 
	C629.064270,157.510834 616.600220,157.441132 604.140381,157.635086 
	C603.073120,157.651688 601.404297,159.247299 601.085938,160.404114 
	C599.418396,166.463593 598.096375,172.618103 596.608948,178.932007 
	C575.531677,178.932007 554.587524,178.932007 533.124146,178.932007 
	C548.189331,128.299210 563.192444,77.875198 578.280151,27.166864 
	C590.221313,27.166864 602.036133,27.166861 613.850952,27.166866 
	C629.680969,27.166872 645.511353,27.222137 661.340637,27.113531 
	C664.038452,27.095020 665.350037,27.647203 666.209290,30.565914 
	C679.436218,75.492630 692.829590,120.370354 706.321472,165.638458 
M618.360657,85.813408 
	C616.207947,95.095749 614.055298,104.378098 611.868835,113.806305 
	C618.662476,113.806305 624.924805,113.806305 631.617676,113.806305 
	C628.379150,100.019341 625.208496,86.521027 622.037781,73.022713 
	C621.803467,73.049744 621.569153,73.076775 621.334839,73.103813 
	C620.432373,77.077942 619.529907,81.052078 618.360657,85.813408 
z"/>
<path fill="#010101" opacity="1.000000" stroke="none" 
	d="
M964.081909,129.166550 
	C977.843506,128.997726 982.818298,123.943382 982.830688,110.573021 
	C982.836853,103.911774 982.831787,97.250504 982.831787,90.210632 
	C1003.288147,90.210632 1023.658508,90.210632 1045.341919,90.210632 
	C1044.434937,105.815598 1044.959106,121.614822 1042.278198,136.850052 
	C1038.653442,157.449081 1024.495239,170.378662 1005.047424,176.760132 
	C979.056396,185.288666 952.590637,185.481827 926.506104,177.290726 
	C899.738892,168.885254 886.050720,149.868713 885.217224,121.472954 
	C884.914978,111.175652 885.168579,100.862030 885.168579,90.194695 
	C905.784302,90.194695 926.150452,90.194695 947.000549,90.194695 
	C947.000549,97.415833 946.969482,104.696846 947.007629,111.977509 
	C947.067932,123.488930 952.009033,128.577713 964.081909,129.166550 
z"/>
<path fill="#010101" opacity="1.000000" stroke="none" 
	d="
M301.525391,126.805534 
	C306.568634,123.376419 308.122528,118.629990 308.153107,113.214844 
	C308.196106,105.589729 308.163940,97.964188 308.163940,90.089157 
	C328.850922,90.089157 349.115723,90.089157 370.025024,90.089157 
	C369.330109,107.157745 372.100128,124.512489 366.751434,141.390457 
	C361.654083,157.475220 350.910828,168.860382 335.388916,174.780396 
	C305.662262,186.118057 275.407074,186.412048 245.728821,174.891998 
	C223.549255,166.282654 212.286224,148.792496 211.068329,125.193939 
	C210.470016,113.600624 210.964630,101.950897 210.964630,90.080521 
	C231.436340,90.080521 251.690567,90.080521 272.507233,90.080521 
	C272.507233,96.408249 272.507141,102.693329 272.507233,108.978409 
	C272.507507,127.049622 284.251923,134.425339 301.525391,126.805534 
z"/>
<path fill="#050505" opacity="1.000000" stroke="none" 
	d="
M272.467285,30.583050 
	C277.166229,29.385181 281.476715,28.329630 286.185425,27.176573 
	C286.185425,42.566719 286.185425,57.588516 286.185425,72.809753 
	C271.836090,72.809753 257.595490,72.809753 242.741806,72.809753 
	C244.115784,61.359871 245.404160,50.060719 246.940628,38.795403 
	C247.076157,37.801773 248.702881,36.541332 249.857895,36.233429 
	C257.230377,34.268055 264.664795,32.534935 272.467285,30.583050 
z"/>
<path fill="#050505" opacity="1.000000" stroke="none" 
	d="
M1003.335327,67.243393 
	C992.034058,70.093781 981.133118,72.837875 969.811829,75.687767 
	C969.811829,60.378540 969.811829,45.520676 969.811829,30.326126 
	C984.090271,30.326126 998.425171,30.326126 1013.064148,30.326126 
	C1011.713013,41.644550 1010.536133,52.845207 1008.831360,63.964924 
	C1008.633972,65.252449 1005.505249,66.090599 1003.335327,67.243393 
z"/>
<path fill="#020202" opacity="1.000000" stroke="none" 
	d="
M921.025513,41.156143 
	C922.023804,39.236450 922.726624,36.754494 924.005371,36.409943 
	C936.156250,33.135937 948.404968,30.224773 960.846191,27.154797 
	C960.846191,42.438232 960.846191,57.396099 960.846191,72.678009 
	C946.476379,72.678009 932.094604,72.678009 917.376953,72.678009 
	C918.588928,62.269257 919.793091,51.927391 921.025513,41.156143 
z"/>
<path fill="#020202" opacity="1.000000" stroke="none" 
	d="
M337.333008,39.406792 
	C336.422424,47.447041 335.683807,55.047966 334.662872,62.610779 
	C334.485138,63.927296 333.335663,65.900948 332.264404,66.188026 
	C319.989532,69.477478 307.642883,72.499107 295.023346,75.665405 
	C295.023346,60.187450 295.023346,45.303299 295.023346,30.208950 
	C309.442352,30.208950 323.670013,30.208950 338.335266,30.208950 
	C338.020233,33.183945 337.714722,36.069241 337.333008,39.406792 
z"/>
<path fill="#FEFEFE" opacity="1.000000" stroke="none" 
	d="
M140.061310,81.912766 
	C149.008743,91.598740 149.082565,102.767105 145.618484,113.943604 
	C142.387955,124.366539 133.393021,128.489426 123.409676,129.867798 
	C115.226700,130.997604 106.894897,131.049469 98.298126,131.600372 
	C98.298126,111.957260 98.298126,92.920586 98.298126,73.451569 
	C112.651337,74.061615 127.420059,71.508865 140.061310,81.912766 
z"/>
<path fill="#FEFEFE" opacity="1.000000" stroke="none" 
	d="
M472.897522,126.072983 
	C461.076324,132.076370 448.684906,130.930191 436.137817,131.163849 
	C436.137817,111.898331 436.137817,92.868027 436.137817,72.656807 
	C446.307068,73.670692 456.288605,73.975090 465.978394,75.815536 
	C476.863678,77.883064 483.489441,85.267090 484.809723,96.351402 
	C486.206055,108.073921 484.910248,119.130455 472.897522,126.072983 
z"/>
<path fill="#FEFEFE" opacity="1.000000" stroke="none" 
	d="
M820.531494,113.219467 
	C817.554688,122.240425 811.043762,127.153969 802.669128,128.727844 
	C793.106689,130.524933 783.289734,130.968033 773.156372,132.044876 
	C773.156372,111.931717 773.156372,92.896156 773.156372,72.929253 
	C782.461121,73.639748 791.649414,73.625542 800.565002,75.177887 
	C816.855469,78.014305 824.878601,91.469658 821.587280,108.961220 
	C821.341370,110.268257 820.998291,111.557014 820.531494,113.219467 
z"/>
<path fill="#FAFAFA" opacity="1.000000" stroke="none" 
	d="
M618.494019,85.419807 
	C619.529907,81.052078 620.432373,77.077942 621.334839,73.103813 
	C621.569153,73.076775 621.803467,73.049744 622.037781,73.022713 
	C625.208496,86.521027 628.379150,100.019341 631.617676,113.806305 
	C624.924805,113.806305 618.662476,113.806305 611.868835,113.806305 
	C614.055298,104.378098 616.207947,95.095749 618.494019,85.419807 
z"/>
</svg>